<?xml version="1.0" standalone="no"?>
<!DOCTYPE svg PUBLIC "-//W3C//DTD SVG 20010904//EN" "http://www.w3.org/TR/2001/REC-SVG-20010904/DTD/svg10.dtd">
<svg version="1.0" xmlns="http://www.w3.org/2000/svg" width="300.000000pt" height="209.000000pt"
	viewBox="0 0 300.000000 209.000000" preserveAspectRatio="xMidYMid meet">
	<metadata>
		Created by potrace 1.10, written by Peter Selinger 2001-2011
	</metadata>
	<g transform="translate(0.000000,209.000000) scale(0.100000,-0.100000)" fill="#796615" stroke="none">
		<path d="M407 1926 c-87 -32 -157 -101 -185 -185 -8 -24 -12 -156 -12 -431 0
-440 1 -447 64 -524 19 -23 58 -55 87 -71 l54 -30 545 -5 545 -5 185 -128
c102 -71 186 -132 188 -136 1 -4 -27 -49 -63 -100 -37 -51 -65 -94 -63 -96 2
-1 224 -14 493 -29 270 -15 496 -29 504 -32 9 -3 12 2 9 14 -9 33 -401 912
-407 912 -3 0 -35 -43 -70 -95 l-64 -94 -89 62 -89 62 -2 350 c-2 332 -3 352
-23 396 -30 63 -79 116 -138 147 l-51 27 -690 2 c-563 2 -697 0 -728 -11z
m1396 -77 c47 -13 102 -60 128 -110 18 -36 19 -62 19 -429 0 -367 -1 -393 -19
-429 -26 -50 -81 -97 -128 -110 -52 -15 -1314 -15 -1366 0 -49 13 -105 63
-128 114 -17 36 -19 74 -19 425 0 425 1 431 67 492 60 57 51 57 758 57 425 1
663 -3 688 -10z m222 -869 c17 -19 17 -21 0 -40 -27 -29 -35 -25 -35 20 0 45
8 49 35 20z m339 -12 c9 -34 8 -35 -24 -30 -34 5 -34 6 -20 33 14 26 36 24 44
-3z m-187 -150 c29 -21 55 -38 57 -38 3 0 27 31 52 70 41 61 64 79 64 50 0 -5
63 -150 140 -324 132 -296 151 -344 133 -333 -5 3 -152 13 -328 22 -176 9
-337 20 -357 23 l-37 7 50 68 c28 38 49 71 47 72 -4 4 -13 10 -214 147 l-141
96 91 4 c73 3 101 10 142 31 73 37 130 107 148 180 l7 28 47 -33 c26 -17 70
-49 99 -70z m-527 -103 c0 -3 -6 -14 -12 -25 -10 -16 -10 -24 0 -41 12 -19 12
-19 -10 -8 -46 24 -98 62 -98 70 0 5 27 9 60 9 33 0 60 -2 60 -5z m290 -295
c0 -19 -19 -20 -29 -1 -16 28 -14 33 9 21 11 -6 20 -15 20 -20z m-52 -148 c14
-21 13 -22 -15 -22 -38 0 -45 7 -30 31 14 23 25 20 45 -9z m798 -58 c-6 -16
-32 -19 -41 -3 -4 5 1 19 11 30 16 18 19 18 27 4 5 -9 6 -23 3 -31z" />
	</g>
</svg>
