<?xml version="1.0" standalone="no"?>
<!DOCTYPE svg PUBLIC "-//W3C//DTD SVG 20010904//EN" "http://www.w3.org/TR/2001/REC-SVG-20010904/DTD/svg10.dtd">
<svg version="1.0" xmlns="http://www.w3.org/2000/svg" width="395.000000pt" height="232.000000pt"
	viewBox="0 0 395.000000 232.000000" preserveAspectRatio="xMidYMid meet">

	<g transform="translate(0.000000,232.000000) scale(0.100000,-0.100000)" fill="#ffffff" stroke="none">
		<path d="M805 2296 c-40 -17 -84 -63 -101 -103 -11 -26 -14 -137 -14 -555 l0
-522 -67 -68 -66 -67 -79 100 c-79 98 -96 111 -116 87 -5 -7 -88 -264 -182
-571 -119 -383 -170 -561 -163 -568 8 -8 191 18 583 80 315 50 576 94 581 97
20 12 5 39 -75 127 l-85 94 92 91 92 92 1285 0 c888 0 1297 3 1324 11 43 12
91 57 112 106 12 27 14 155 14 732 0 470 -3 709 -11 728 -15 40 -57 82 -104
104 -38 18 -100 19 -1515 18 -1201 0 -1481 -2 -1505 -13z" />
	</g>
	<g transform="translate(0.000000,232.000000) scale(0.100000,-0.100000)" fill="#064d18" stroke="none">
		<path d="M812 2240 c-18 -11 -41 -34 -52 -52 -20 -32 -20 -48 -18 -740 l3
-706 25 -27 c55 -59 -47 -55 1545 -55 1592 0 1490 -4 1545 55 l25 27 3 707 2
707 -23 35 c-12 19 -38 42 -57 51 -33 17 -125 18 -1500 18 -1444 0 -1465 0
-1498 -20z" />
		<path d="M385 1088 c-41 -107 -309 -1004 -301 -1006 6 -1 238 34 515 78 277
44 508 80 513 80 6 0 -24 38 -66 84 -42 46 -76 92 -76 101 0 10 36 55 81 101
l81 83 -159 3 c-157 3 -160 3 -201 32 -69 48 -82 88 -82 256 l0 144 -58 -57
c-32 -32 -67 -57 -78 -57 -14 0 -43 28 -88 85 -37 47 -70 85 -72 85 -3 0 -7
-6 -9 -12z" />
	</g>
</svg>
